<svg id="ecXbSzALDlK1" xmlns="http://www.w3.org/2000/svg" xmlns:xlink="http://www.w3.org/1999/xlink" viewBox="0 0 240 240" shape-rendering="geometricPrecision" text-rendering="geometricPrecision" width="240" height="240"><path d="M186.180745,396.091469q-44.737344,19.048108-71.877002,15.703171c-27.139658-3.344937-53.656638-49.612967-41.336988-97.387141q12.31965-47.774174,69.923106-20.29144q9.493753,0,9.493753-10.456177c0-12.873394-13.438254-12.873394-22.767029-12.873394-13.127382,0-23.350765,4.863282-35.306281,0-16.243612-6.6076,6.615301-36.533387,6.615301-36.533387-6.86599-6.805355-25.175298-3.63993-16.020644-17.54642s16.020644,6.484546,21.360859,6.484546c13.673817,0,10.639669-20.925289,79.294602-20.925289" transform="translate(-65.428054-187.259846)" stroke="#000" stroke-width="5"/><path d="M186.617508,396.08921q-45.174107,19.050367-72.313765,15.70543c-27.139658-3.344937-53.656638-49.612967-41.336988-97.387141q12.31965-47.774174,69.923106-20.29144q9.493753,0,9.493753-10.456177c0-12.873394-13.438254-12.873394-22.767029-12.873394-13.127382,0-23.350765,4.863282-35.306281,0-16.243612-6.6076,6.615301-36.533387,6.615301-36.533387-6.86599-6.805355-25.175298-3.63993-16.020644-17.54642s16.020644,6.484546,21.360859,6.484546c13.673817,0,10.935379-20.925289,79.294602-20.925289" transform="matrix(-1 0 0 1 305.428054-187.257587)" stroke="#000" stroke-width="5"/><path d="M114.086463,307.180894q19.86216.000946,28.586118,18.908453q6.371248,18.89813-15.126396,8.288653c-21.497645-10.609477-24.008252-12.743895-21.497646-19.970501q2.510606-7.226606,8.037923-7.22566" transform="translate(-62.609028-187.259846)" fill="#fff" stroke="#fff" stroke-width="5"/><path d="M114.086463,307.180894q19.86216.000946,28.586118,18.908453q6.371248,18.89813-15.126396,8.288653c-21.497645-10.609477-24.008252-12.743895-21.497646-19.970501q2.510606-7.226606,8.037923-7.22566" transform="matrix(-1 0 0 1 302.313319-187.257588)" fill="#fff" stroke="#fff" stroke-width="5"/></svg>